HIERARCHY
ROOT Beta:Hips
{
	OFFSET 0.00 0.00 0.00
	CHANNELS 6 Xposition Yposition Zposition Yrotation Xrotation Zrotation
	JOINT Beta:Spine
	{
		OFFSET	0.0000	9.2263	1.5771
		CHANNELS 3 Xrotation Yrotation Zrotation
		JOINT Beta:Spine1
		{
			OFFSET	0.0000	16.2540	-0.1656
			CHANNELS 3 Xrotation Yrotation Zrotation
			JOINT Beta:Spine2
			{
				OFFSET	0.0000	13.6396	-1.2923
				CHANNELS 3 Xrotation Yrotation Zrotation
				JOINT Beta:Neck
				{
					OFFSET	0.0000	13.8774	-4.3542
					CHANNELS 3 Xrotation Yrotation Zrotation
					JOINT Beta:Neck1
					{
						OFFSET	0.0000	4.3400	0.9269
						CHANNELS 3 Xrotation Yrotation Zrotation
						JOINT Beta:Head
						{
							OFFSET	0.0000	4.0266	0.8585
							CHANNELS 3 Xrotation Yrotation Zrotation
							End Site
							{
								OFFSET 0.0000 23.0297 0.1231
							}
						}
					}
				}
				JOINT Beta:LeftShoulder
				{
					OFFSET	6.1442	10.1870	-3.7932
					CHANNELS 3 Zrotation Xrotation Yrotation
					JOINT Beta:LeftArm
					{
						OFFSET	12.3191	-1.1130	-1.7935
						CHANNELS 3 Zrotation Xrotation Yrotation
						JOINT Beta:LeftForeArm
						{
							OFFSET	27.6870	0.0000	0.0000
							CHANNELS 3 Xrotation Zrotation Yrotation
							JOINT Beta:LeftHand
							{
								OFFSET	27.8738	0.0000	0.0000
								CHANNELS 3 Zrotation Yrotation Xrotation
								JOINT Beta:LeftHandThumb1
								{
									OFFSET	2.3785	-1.0029	2.6209
									CHANNELS 3 Zrotation Xrotation Yrotation
									JOINT Beta:LeftHandThumb2
									{
										OFFSET	3.3624	-1.0029	2.8398
										CHANNELS 3 Zrotation Xrotation Yrotation
										JOINT Beta:LeftHandThumb3
										{
											OFFSET	4.5018	-1.3445	2.1783
											CHANNELS 3 Zrotation Xrotation Yrotation
											End Site
											{
												OFFSET 2.6000 -1.0000 1.0000
											}
										}
									}
								}
								JOINT Beta:LeftHandMiddle1
								{
									OFFSET	10.4639	0.6148	0.4298
									CHANNELS 3 Zrotation Xrotation Yrotation
									JOINT Beta:LeftHandMiddle2
									{
										OFFSET	5.7921	0.0000	0.0000
										CHANNELS 3 Zrotation Xrotation Yrotation
										JOINT Beta:LeftHandMiddle3
										{
											OFFSET	3.7132	0.0000	0.0000
											CHANNELS 3 Zrotation Xrotation Yrotation
											End Site
											{
												OFFSET 2.3000 0.0000 0.0000
											}
										}
									}
								}
								JOINT Beta:LeftHandIndex1
								{
									OFFSET	10.3945	0.6148	2.7055
									CHANNELS 3 Zrotation Xrotation Yrotation
									JOINT Beta:LeftHandIndex2
									{
										OFFSET	5.5493	0.0000	0.0000
										CHANNELS 3 Zrotation Xrotation Yrotation
										JOINT Beta:LeftHandIndex3
										{
											OFFSET	3.3911	0.0000	0.0000
											CHANNELS 3 Zrotation Xrotation Yrotation
											End Site
											{
												OFFSET 2.5000 0.0000 0.0000
											}
										}
									}
								}
								JOINT Beta:LeftHandRing1
								{
									OFFSET	10.3252	0.3211	-1.8755
									CHANNELS 3 Zrotation Xrotation Yrotation
									JOINT Beta:LeftHandRing2
									{
										OFFSET	5.4452	0.0000	0.0000
										CHANNELS 3 Zrotation Xrotation Yrotation
										JOINT Beta:LeftHandRing3
										{
											OFFSET	3.7132	0.0000	0.0000
											CHANNELS 3 Zrotation Xrotation Yrotation
											End Site
											{
												OFFSET 2.0000 0.0000 0.0000
											}
										}
									}
								}
								JOINT Beta:LeftHandPinky1
								{
									OFFSET	10.0130	-0.0783	-3.9671
									CHANNELS 3 Zrotation Xrotation Yrotation
									JOINT Beta:LeftHandPinky2
									{
										OFFSET	3.6763	0.0000	0.0000
										CHANNELS 3 Zrotation Xrotation Yrotation
										JOINT Beta:LeftHandPinky3
										{
											OFFSET	2.8113	0.0000	0.0000
											CHANNELS 3 Zrotation Xrotation Yrotation
											End Site
											{
												OFFSET 2.9000 0.0000 0.0000
											}
										}
									}
								}
							}
						}
					}
				}
				JOINT Beta:RightShoulder
				{
					OFFSET	-6.1402	10.1870	-3.7932
					CHANNELS 3 Zrotation Xrotation Yrotation
					JOINT Beta:RightArm
					{
						OFFSET	-12.3231	-1.1130	-1.7935
						CHANNELS 3 Zrotation Xrotation Yrotation
						JOINT Beta:RightForeArm
						{
							OFFSET	-27.6870	0.0000	0.0000
							CHANNELS 3 Xrotation Zrotation Yrotation
							JOINT Beta:RightHand
							{
								OFFSET	-27.8738	0.0000	0.0000
								CHANNELS 3 Zrotation Yrotation Xrotation
								JOINT Beta:RightHandThumb1
								{
									OFFSET	-2.5178	-0.9367	2.5137
									CHANNELS 3 Zrotation Xrotation Yrotation
									JOINT Beta:RightHandThumb2
									{
										OFFSET	-3.2638	-1.0870	2.9669
										CHANNELS 3 Zrotation Xrotation Yrotation
										JOINT Beta:RightHandThumb3
										{
											OFFSET	-4.4165	-1.3703	2.1350
											CHANNELS 3 Zrotation Xrotation Yrotation
											End Site
											{
												OFFSET -2.6000 -1.0000 1.0000
											}
										}
									}
								}
								JOINT Beta:RightHandIndex1
								{
									OFFSET	-10.4665	0.4896	2.7120
									CHANNELS 3 Zrotation Xrotation Yrotation
									JOINT Beta:RightHandIndex2
									{
										OFFSET	-5.3768	0.0000	0.0000
										CHANNELS 3 Zrotation Xrotation Yrotation
										JOINT Beta:RightHandIndex3
										{
											OFFSET	-3.3855	0.0000	0.0000
											CHANNELS 3 Zrotation Xrotation Yrotation
											End Site
											{
												OFFSET -2.6000 0.0000 0.0000
											}
										}
									}
								}
								JOINT Beta:RightHandMiddle1
								{
									OFFSET	-10.7596	0.4896	0.4278
									CHANNELS 3 Zrotation Xrotation Yrotation
									JOINT Beta:RightHandMiddle2
									{
										OFFSET	-5.6168	0.0000	0.0000
										CHANNELS 3 Zrotation Xrotation Yrotation
										JOINT Beta:RightHandMiddle3
										{
											OFFSET	-3.7364	0.0000	0.0000
											CHANNELS 3 Zrotation Xrotation Yrotation
											End Site
											{
												OFFSET -2.3000 0.0000 0.0000
											}
										}
									}
								}
								JOINT Beta:RightHandRing1
								{
									OFFSET	-10.4702	0.3879	-1.9363
									CHANNELS 3 Zrotation Xrotation Yrotation
									JOINT Beta:RightHandRing2
									{
										OFFSET	-5.4013	0.0000	0.0000
										CHANNELS 3 Zrotation Xrotation Yrotation
										JOINT Beta:RightHandRing3
										{
											OFFSET	-3.3916	0.0000	0.0000
											CHANNELS 3 Zrotation Xrotation Yrotation
											End Site
											{
												OFFSET -2.2000 0.0000 0.0000
											}
										}
									}
								}
								JOINT Beta:RightHandPinky1
								{
									OFFSET	-9.9715	-0.1191	-3.9540
									CHANNELS 3 Zrotation Xrotation Yrotation
									JOINT Beta:RightHandPinky2
									{
										OFFSET	-3.6528	0.0000	0.0000
										CHANNELS 3 Zrotation Xrotation Yrotation
										JOINT Beta:RightHandPinky3
										{
											OFFSET	-2.7820	0.0000	0.0000
											CHANNELS 3 Zrotation Xrotation Yrotation
											End Site
											{
												OFFSET -2.9000 0.0000 0.0000
											}
										}
									}
								}
							}
						}
					}
				}
			}
		}
	}
	JOINT Beta:LeftUpLeg
	{
		OFFSET	9.6338	-3.2733	0.0000
		CHANNELS 3 Xrotation Yrotation Zrotation
		JOINT Beta:LeftLeg
		{
			OFFSET	0.0000	-41.7300	-1.7300
			CHANNELS 3 Xrotation Yrotation Zrotation
			JOINT Beta:LeftFoot
			{
				OFFSET	0.0126	-39.1900	-0.8477
				CHANNELS 3 Xrotation Yrotation Zrotation
				JOINT Beta:LeftToeBase
				{
					OFFSET	-0.1833	-12.1931	8.2823
					CHANNELS 3 Xrotation Yrotation Zrotation
					End Site
					{
						OFFSET 0.0000 0.0000 10.1681
					}
				}
			}
		}
	}
	JOINT Beta:RightUpLeg
	{
		OFFSET	-9.6338	-3.2733	0.0000
		CHANNELS 3 Xrotation Yrotation Zrotation
		JOINT Beta:RightLeg
		{
			OFFSET	0.0000	-41.7300	-1.7300
			CHANNELS 3 Xrotation Yrotation Zrotation
			JOINT Beta:RightFoot
			{
				OFFSET	0.0126	-39.1900	-0.8477
				CHANNELS 3 Xrotation Yrotation Zrotation
				JOINT Beta:RightToeBase
				{
					OFFSET	-0.1833	-12.1931	8.2823
					CHANNELS 3 Xrotation Yrotation Zrotation
					End Site
					{
						OFFSET 0.0032 0.0000 10.1681
					}
				}
			}
		}
	}
}
MOTION
Frames: 6
Frame Time: 0.0333333
-0.0000 95.8925 0.0000 1.9214 1.9390 0.7071 6.1563 -1.3494 -0.7539 2.4982 -2.4195 1.2324 2.4715 -2.3753 1.3421 -0.4768 2.1292 -0.2375 -0.0000 0.0000 -0.0000 -3.1931 4.5310 -1.8767 -14.2082 2.6098 -8.8000 -58.2632 25.3986 -5.5304 0.0000 0.0000 -11.0614 -13.4015 6.9120 8.1305 4.6367 10.7043 10.5604 5.5592 1.1223 -3.5933 8.7858 10.0000 -4.7037 -23.5863 -0.0000 -0.5618 -11.9611 0.0000 -0.0000 -13.9610 0.0000 0.0000 -13.7685 -0.0000 -8.6439 -15.1749 -0.0000 0.0000 -15.1749 -0.0000 0.0000 -24.5286 0.0000 1.9559 -19.4206 -0.0000 0.0000 -21.4170 -0.0000 0.0000 -31.1617 -0.3047 3.4850 -17.7889 0.0000 0.0000 -17.7889 -0.0000 0.0000 15.6819 1.6512 3.8317 46.5399 23.0055 17.3850 0.0000 0.0000 23.1988 8.3459 -1.3525 3.3845 1.8882 18.7988 -12.6126 -5.1715 -1.0382 -5.1323 0.9215 -10.0000 6.2391 17.7329 -0.0000 8.4424 23.8126 -0.0000 -0.0000 10.5140 0.0000 0.0000 19.5802 -0.0000 4.0031 35.3995 0.0000 -0.0000 20.5823 -0.0000 0.0000 21.8879 -0.0000 1.7746 47.4818 0.0000 -0.0000 23.1661 0.0000 0.0000 26.9110 -0.2440 1.4271 28.6920 0.0000 -0.0000 15.9299 0.0000 -0.0000 -29.4515 9.3623 4.4616 58.4077 -4.7723 -0.5582 -0.2039 0.0803 -1.6622 -8.2041 0.0000 0.0000 -10.9680 -7.2242 0.9055 16.2527 3.0009 -3.5216 -8.4523 -0.0237 0.3851 -4.9718 0.0000 0.0000 
0.1574 96.3067 4.7173 1.4291 2.5357 0.8366 5.7726 -0.4432 -0.9431 2.2342 -1.8408 0.6765 2.2172 -1.7974 0.7699 -0.4329 1.8861 -0.3649 -0.0000 0.0000 -0.0000 -2.8348 3.3170 -1.8755 -14.0541 2.3911 -7.8506 -61.4107 23.6839 -0.4136 -0.0000 0.0000 -11.0418 -16.5939 5.7668 7.9283 4.6366 10.7043 10.5604 5.9109 0.4397 -4.0322 8.6612 10.0000 -4.3785 -22.8019 0.0000 -0.7159 -11.9649 0.0000 0.0000 -13.9647 -0.0000 0.0000 -12.7037 0.0000 -9.2435 -15.1876 -0.0000 0.0000 -15.1876 0.0000 -0.0000 -23.4873 0.0000 1.9911 -19.4207 -0.0000 0.0000 -21.4171 0.0000 0.0000 -30.6287 -0.3254 3.7220 -17.8127 0.0000 -0.0000 -17.8127 -0.0000 0.0000 15.4209 1.7038 4.1460 43.8940 23.7043 19.9605 -0.0000 -0.0000 25.9990 10.5926 -4.1132 3.1753 1.8882 18.7987 -12.6126 -5.2321 -1.1548 -4.8850 0.9199 -10.0000 6.2449 18.1079 -0.0000 8.4981 23.8179 0.0000 0.0000 10.5193 0.0000 -0.0000 20.0269 0.0000 4.1388 35.4415 0.0000 0.0000 20.6239 -0.0000 0.0000 22.1297 0.0000 1.9078 47.5218 0.0000 0.0000 23.2055 -0.0000 -0.0000 27.1348 -0.2756 1.6118 28.7465 0.0000 -0.0000 15.9809 0.0000 -0.0000 -31.3289 9.2730 3.4910 44.5932 -2.4452 -2.0891 -0.6374 0.1997 -3.3542 -6.3944 0.0000 -0.0000 -4.4969 -8.0093 1.5728 8.8605 4.4549 -4.3290 -9.0669 -0.0652 0.7713 -4.6716 0.0000 -0.0000 
0.3672 95.9467 9.5120 0.8040 3.1823 0.3265 5.3390 0.5896 -0.1415 2.0136 -1.2439 -0.0339 1.9971 -1.2119 0.0446 -0.5248 1.5528 -0.2486 -0.0000 0.0000 -0.0000 -2.8306 2.2995 -1.8736 -13.9693 2.1965 -6.9701 -64.1778 21.5570 4.2426 -0.0000 0.0000 -10.9362 -18.1930 4.1478 8.1553 4.6366 10.7043 10.5604 5.8886 0.4961 -4.2015 8.6511 10.0000 -4.3815 -22.7377 -0.0000 -0.7285 -11.9823 -0.0000 0.0000 -13.9822 0.0000 -0.0000 -12.5604 -0.0000 -9.1494 -15.2009 0.0000 -0.0000 -15.2009 0.0000 0.0000 -23.4316 0.0000 2.0023 -19.4144 -0.0000 0.0000 -21.4107 0.0000 -0.0000 -30.6061 -0.3144 3.5955 -17.8012 0.0000 -0.0000 -17.8012 -0.0000 0.0000 14.6658 1.7269 4.4971 40.9918 23.9120 22.3438 -0.0000 -0.0000 30.3151 12.8757 -7.0875 3.4863 1.8882 18.7988 -12.6126 -5.1554 -0.7659 -3.8378 0.9012 -10.0000 6.3120 19.4603 0.0000 8.6769 23.7380 -0.0000 0.0000 10.4394 -0.0000 -0.0000 20.9160 0.0000 4.2753 35.4769 0.0000 -0.0000 20.6589 0.0000 -0.0000 23.0397 -0.0000 2.2375 47.5743 0.0000 -0.0000 23.2567 -0.0000 0.0000 27.9019 -0.4123 2.4124 28.7634 0.0000 0.0000 15.9810 -0.0000 0.0000 -30.2301 8.5942 2.5551 24.7381 0.7780 -2.6190 2.2029 0.1569 -4.3907 -5.3763 -0.0000 0.0000 -1.8875 -9.6052 1.7718 9.0209 6.4297 -4.0862 -11.6581 -0.0123 0.2261 -4.4869 -0.0000 -0.0000 
0.6046 94.8768 14.5199 -0.3896 3.6305 -1.3094 4.7862 2.2294 2.2324 1.9508 -0.6522 -1.0373 1.9129 -0.6450 -0.9746 -0.6286 1.1090 0.3384 -0.0000 0.0000 -0.0000 -3.2061 1.5069 -2.1950 -13.8306 2.0839 -6.4957 -66.6632 19.1217 8.3106 0.0000 0.0000 -10.4506 -18.5826 2.4136 7.8070 4.6366 10.7043 10.5604 5.8393 0.7905 -4.6299 8.6408 10.0000 -4.4464 -22.6233 -0.0000 -0.7025 -11.9663 -0.0000 -0.0000 -13.9662 -0.0000 -0.0000 -12.3973 0.0000 -9.0421 -15.2007 -0.0000 0.0000 -15.2007 -0.0000 0.0000 -23.4163 -0.0000 2.0403 -19.3967 0.0000 0.0000 -21.3928 0.0000 0.0000 -30.6173 -0.3078 3.5205 -17.7632 -0.0000 0.0000 -17.7633 0.0000 -0.0000 13.8213 1.7615 4.9581 37.7158 23.3838 24.8575 -0.0000 0.0000 33.2089 14.4141 -7.1934 4.1355 1.8882 18.7988 -12.6126 -5.1671 -0.4181 -2.1123 0.8774 -10.0000 6.3980 20.7318 0.0000 8.8765 23.7578 -0.0000 -0.0000 10.4591 -0.0000 -0.0000 21.5143 -0.0000 4.3433 35.4945 0.0000 0.0000 20.6763 0.0000 -0.0000 23.8523 -0.0000 2.5658 47.6019 0.0000 0.0000 23.2828 -0.0000 -0.0000 28.6133 -0.5662 3.3136 28.7848 0.0000 -0.0000 15.9812 0.0000 0.0000 -32.2891 6.9039 3.2141 12.0147 3.0697 -1.1261 2.6039 0.1787 -6.1547 -5.8611 -0.0000 0.0000 -0.6149 -11.4123 2.2342 12.7806 6.0642 -3.2434 -15.9050 2.9643 0.2109 -4.5446 -0.0000 -0.0000 
0.8162 93.3010 19.8298 -1.9481 3.7862 -2.9136 4.0899 3.6001 4.1272 2.0054 0.0296 -1.7701 1.9317 0.0147 -1.7300 -0.5917 0.6429 0.9606 -0.0000 0.0000 -0.0000 -3.9250 1.1943 -2.4043 -13.3741 1.9229 -5.9139 -68.8246 16.6329 11.7735 0.0000 0.0000 -9.6424 -19.2336 1.4332 7.3122 4.6366 10.7043 10.5604 5.6662 2.6881 -5.0667 8.8671 10.0000 -5.1902 -23.3492 0.0000 -0.5215 -11.9526 0.0000 -0.0000 -13.9526 0.0000 -0.0000 -13.5646 0.0000 -8.7003 -15.2295 -0.0000 0.0000 -15.2295 0.0000 -0.0000 -24.3698 -0.0000 2.1668 -19.4317 0.0000 -0.0000 -21.4274 0.0000 0.0000 -31.0633 -0.3244 3.7101 -17.7683 -0.0000 0.0000 -17.7684 -0.0000 -0.0000 13.6072 1.9424 5.9113 33.6170 22.7084 27.4590 -0.0000 -0.0000 34.4522 13.7641 -5.6221 4.3274 1.8882 18.7988 -12.6126 -5.1255 -0.3905 -1.2507 0.8630 -10.0000 6.4503 21.3210 0.0000 8.9845 23.7164 0.0000 -0.0000 10.4178 0.0000 0.0000 21.6554 0.0000 4.2840 35.5698 -0.0000 -0.0000 20.7517 0.0000 -0.0000 24.2812 0.0000 2.6934 47.5809 0.0000 -0.0000 23.2612 0.0000 -0.0000 28.7625 -0.6515 3.8132 28.7978 0.0000 -0.0000 15.9813 -0.0000 0.0000 -35.9607 4.6840 3.9862 5.7152 3.7375 2.2943 -1.5968 0.4007 -6.9007 -7.6823 0.0000 -0.0000 1.6822 -12.5702 2.6756 15.4143 3.3448 -2.7467 -19.6813 7.9533 1.5171 -5.0308 0.0000 -0.0000 
1.0699 91.6426 25.1931 -3.0686 3.9491 -3.5400 3.5508 3.9437 4.3452 2.0072 0.8755 -1.8959 1.9271 0.8525 -1.8774 -0.5805 0.2372 1.1636 -0.0000 0.0000 -0.0000 -4.6427 1.1228 -2.4168 -12.9712 1.7097 -5.0260 -70.1354 14.7208 13.7321 0.0000 0.0000 -8.0073 -20.1761 1.1894 7.8766 4.6366 10.7043 10.5604 5.2180 3.7755 -6.0662 9.1750 10.0000 -7.6280 -25.9997 -0.0000 0.0466 -11.9881 0.0000 0.0000 -13.9881 0.0000 0.0000 -17.5136 0.2164 -7.1624 -15.2827 -0.0000 0.0000 -15.2827 -0.0000 0.0000 -27.2295 -0.0000 2.3007 -19.4361 0.0000 0.0000 -21.4313 0.0000 0.0000 -32.2487 -0.3078 3.5201 -17.7210 0.0000 0.0000 -17.7210 0.0000 -0.0000 13.6822 2.2015 7.1255 29.6957 21.9412 29.4453 -0.0000 0.0000 34.6692 12.1564 -4.6356 4.4230 1.8882 18.7988 -12.6126 -4.8659 -0.1173 -1.9314 0.8556 -10.0000 6.4767 21.5674 -0.0000 8.9617 23.6742 0.0000 -0.0000 10.3756 -0.0000 0.0000 21.6090 0.0000 4.1537 35.7105 0.0000 0.0000 20.8928 -0.0000 -0.0000 24.4121 0.0000 2.6428 47.5832 0.0000 0.0000 23.2638 0.0000 0.0000 28.6205 -0.6796 3.9782 28.8022 0.0000 -0.0000 15.9813 0.0000 -0.0000 -40.6823 3.3196 4.3483 7.0503 3.3023 4.1482 -9.3503 0.9418 -5.5404 -8.0978 -0.0000 0.0000 4.8596 -13.1310 2.4931 16.0826 1.4809 -2.7873 -22.7365 11.0776 3.3068 -5.9967 0.0000 0.0000 
